<svg xmlns="http://www.w3.org/2000/svg" width="159" height="60" fill="#030a06" xmlns:v="https://vecta.io/nano"><path d="M26.291.249l-.953.037c-3.598.3-6.905 1.829-9.259 4.613-2.563 3.03-3.182 6.223-3.152 10.081l-6.855-.011c-.307 0-.624-.009-.946-.018-.894-.025-1.823-.051-2.661.103a2.38 2.38 0 0 0-1.301.708c-.622.648-.637 1.466-.597 2.304.064 1.321.177 2.645.291 3.966l.177 2.156 1.138 14.702.554 7.1.071 1.06c.078 1.271.158 2.56.493 3.775a11.46 11.46 0 0 0 3.315 5.376c1.387 1.259 3.063 2.157 4.879 2.614 1.537.371 3.322.329 4.999.289l1.459-.024 9.229-.003 8.06.003c.44 0 .894.011 1.352.022 1.489.035 3.041.072 4.432-.252a11.6 11.6 0 0 0 5.366-2.947c1.33-1.319 2.392-3.08 2.856-4.899.355-1.392.444-2.919.531-4.4l.092-1.412.756-9.737.943-11.956.164-1.785c.128-1.296.258-2.602.255-3.884-.001-.788-.168-1.523-.733-2.108-.389-.403-1.024-.6-1.561-.688-.806-.131-1.689-.108-2.544-.085l-.931.017c-2.156-.004-4.313.003-6.469.023l-.093.001c.051-4.131-.869-7.677-3.839-10.698a13.24 13.24 0 0 0-9.47-4.045h-.045zm13.066 23.565l.116.007.009.022.018.043.005.011c.021.048.025.057.024.135-.037 5.066-1.393 11.588-4.989 15.298-3.329 3.436-8.5 5.122-13.215 5.215 2.196-4.131 5.725-8.048 9.366-10.957.563-.45 1.152-.856 1.742-1.263l1.133-.797c.362-.266.85-.626.901-1.111.047-.446-.19-.793-.47-1.112-.391-.227-.678-.322-1.125-.19-.635.186-1.274.656-1.851 1.08l-.444.321c-4.668 3.305-8.546 7.602-11.358 12.582-.095-4.052.828-7.446 3.313-10.706 3.729-4.891 10.867-7.766 16.825-8.578zM3.123 17.507h46.309c-.164 1.56-.271 3.134-.377 4.705l-.187 2.622-1.247 15.626-.466 5.758-.059.753c-.075.993-.15 1.996-.342 2.969-.197.998-.579 1.866-1.096 2.736-.2.303-.416.595-.649.873-1.343 1.604-3.546 2.799-5.639 2.957-1.14.086-2.313.064-3.474.043l-1.499-.019-9.608-.003-7.645.003-1.122.016c-1.159.024-2.347.049-3.461-.143a8.26 8.26 0 0 1-3.954-1.864c-1.349-1.138-2.318-2.661-2.774-4.366-.313-1.13-.39-2.334-.467-3.516l-.061-.885-.455-5.859-1.725-22.406zm37.262 3.592l-.034.004c-7.03.813-15.033 3.705-19.576 9.399-2.921 3.66-4.516 8.42-3.989 13.108a13.94 13.94 0 0 0 .685 2.992l-.137.346c-.577 1.45-1.918 4.82-1.451 5.817.135.288.41.481.708.576a2.02 2.02 0 0 0 .374.075c.394-.065.758-.146.995-.498.255-.379.515-1.289.738-2.068.106-.371.204-.712.288-.952.289-.82.617-1.627.944-2.433l.004-.009.115-.283c5.797.017 11.988-1.797 16.182-5.935 4.69-4.628 5.871-12.091 5.88-18.407.001-.498-.034-1.089-.398-1.47-.224-.234-.561-.305-.874-.298-.151.003-.302.019-.453.035zM25.728 2.781a9.82 9.82 0 0 1 .674-.025c2.753.019 5.51 1.251 7.445 3.191 2.634 2.642 3.173 5.446 3.179 9.032l-10.088-.005-11.352.014c-.087-3.083.41-5.898 2.432-8.333 1.943-2.338 4.716-3.608 7.709-3.875z"/><path d="M39.473 23.821l-.116-.007c-5.958.812-13.096 3.686-16.825 8.578-2.485 3.259-3.408 6.654-3.313 10.706 2.812-4.98 6.69-9.277 11.358-12.582.143-.1.292-.209.444-.321.577-.424 1.217-.893 1.851-1.079.447-.131.734-.037 1.125.19.279.319.517.665.47 1.112-.051.485-.539.845-.901 1.111-.373.274-.753.535-1.133.797-.59.407-1.179.813-1.742 1.263-3.64 2.909-7.169 6.827-9.366 10.957 4.715-.093 9.885-1.779 13.215-5.215 3.595-3.71 4.951-10.232 4.988-15.298.001-.078-.003-.086-.024-.135l-.019-.043-.013-.032zm.878-2.718l.034-.004c.151-.016.301-.032.453-.035.313-.007.65.064.874.298.364.381.398.972.398 1.47-.009 6.316-1.191 13.779-5.88 18.407-4.194 4.138-10.385 5.952-16.182 5.935l-.115.283-.004.009c-.328.806-.655 1.613-.944 2.433-.084.24-.182.581-.288.952-.223.779-.484 1.689-.738 2.068-.237.352-.601.433-.995.498-.128-.015-.251-.037-.374-.076-.298-.095-.573-.288-.708-.576-.466-.997.875-4.367 1.452-5.817l.137-.346c-.336-.979-.569-1.963-.685-2.992-.527-4.687 1.069-9.448 3.989-13.108 4.544-5.694 12.547-8.586 19.576-9.399z"/><path d="M40.385 21.099l-.034.004c-7.03.813-15.033 3.704-19.576 9.399-2.921 3.66-4.516 8.42-3.989 13.108.116 1.029.349 2.013.685 2.992l-.137.346c-.577 1.45-1.918 4.82-1.452 5.817.135.288.41.481.708.576.123.038.246.061.374.076.394-.065.758-.146.995-.498.255-.379.515-1.289.738-2.067a19.35 19.35 0 0 1 .288-.952c.289-.82.617-1.627.944-2.433l.119-.292c5.797.017 11.988-1.797 16.182-5.935 4.69-4.628 5.871-12.091 5.88-18.407.001-.498-.033-1.089-.398-1.47-.224-.234-.561-.305-.874-.298-.151.003-.302.019-.453.035zm-1.028 2.715l.116.007.013.032.019.043c.021.048.025.057.024.135-.037 5.066-1.393 11.588-4.988 15.298-3.329 3.436-8.5 5.122-13.215 5.215 2.196-4.131 5.725-8.048 9.365-10.957.563-.45 1.152-.856 1.742-1.263l1.133-.797c.362-.266.85-.626.901-1.111.047-.446-.19-.793-.47-1.112-.391-.227-.678-.322-1.125-.19-.635.186-1.274.656-1.851 1.079l-.445.321c-4.668 3.305-8.546 7.602-11.358 12.582-.095-4.052.828-7.446 3.313-10.706 3.729-4.891 10.867-7.766 16.825-8.578zM130.9 38.266c-.176-4.979-4.354-8.873-9.333-8.698s-8.875 4.354-8.699 9.333 4.355 8.874 9.335 8.699 8.872-4.356 8.697-9.334zm-9.02-5.991c1.453.059 2.63.408 3.737 1.389 1.32 1.168 2.056 2.855 2.152 4.602s-.453 3.522-1.644 4.825c-1.088 1.191-2.445 1.724-4.035 1.803-1.451-.015-2.648-.241-3.793-1.193-1.337-1.112-2.093-2.758-2.235-4.477-.147-1.786.321-3.633 1.506-5.004 1.177-1.358 2.566-1.826 4.312-1.946zm-16.054 5.245a9.02 9.02 0 0 0-10.042-7.878 9.02 9.02 0 0 0-7.863 10.024 9.02 9.02 0 0 0 10.009 7.882 9.02 9.02 0 0 0 7.896-10.028zm-9.753-5.171c1.444-.118 2.753.034 3.972.873 1.37.942 2.231 2.397 2.516 4.022.323 1.845.019 3.819-1.091 5.356-.972 1.347-2.186 2.015-3.804 2.273-1.478.076-2.784-.014-4.028-.895a6.1 6.1 0 0 1-2.509-4.014c-.302-1.788.06-3.846 1.127-5.333.938-1.307 2.248-2.032 3.817-2.282zm53.74-2.791l-.133.01c-2.271.268-4.316 1.367-5.743 3.17-1.629 2.058-2.189 4.667-1.867 7.247a8.54 8.54 0 0 0 3.22 5.74c2.128 1.654 4.827 2.074 7.457 1.714 1.521-.208 3.808-.937 4.781-2.203.274-.355.411-.79.348-1.239-.044-.315-.183-.616-.442-.81-.298-.222-.696-.25-1.05-.18-.492.096-.933.4-1.351.689l-.262.178c-1.837.955-3.874 1.403-5.894.748-1.437-.473-2.625-1.505-3.293-2.863-.348-.694-.522-1.432-.676-2.188h8.667l1.146.026c1.028.033 2.128.068 3.035-.094a1.36 1.36 0 0 0 .693-.367c.426-.415.502-1.003.489-1.57-.048-2.172-1.068-4.313-2.648-5.783-1.824-1.697-4.024-2.335-6.477-2.224zm.267 2.713c1.316-.154 2.643.181 3.727.944 1.296.921 1.977 2.229 2.249 3.768l-3.298.007-1.649-.002-6.096.008c.279-.938.603-1.79 1.202-2.576.967-1.265 2.305-1.944 3.865-2.149zm-48.541-9.16l9.78-.011 6.022.032c.29.03.521.112.741.305a1.56 1.56 0 0 1 .533 1.105c.009.378-.222.811-.495 1.065-.208.192-.456.27-.731.314-.749.121-1.576.05-2.337.049l-4.039-.007-.001 14.99-.025 5.093c-.06.337-.182.674-.415.932-.249.278-.594.418-.964.426-.389.009-.767-.076-1.047-.359-.329-.33-.45-.816-.491-1.267-.075-.832-.006-1.713.003-2.549l.003-3.711.009-13.558c-1.343.006-5.993.22-6.945-.212a1.23 1.23 0 0 1-.693-.763c-.134-.385-.073-.795.122-1.148.227-.414.531-.591.97-.726zm-21.281 6.458c1.209-.068 2.389.009 3.563.323 1.239.332 3.134 1.063 3.774 2.238.176.324.268.711.144 1.069-.127.365-.474.644-.823.788-1.019.418-2.295-.986-3.253-1.347-1.559-.588-3.434-.555-4.95.153-1.393.651-2.395 1.883-2.914 3.314-.602 1.661-.653 3.827.112 5.445.709 1.5 2.013 2.549 3.56 3.095 1.77.626 3.614.293 5.269-.5.513-.278.978-.648 1.562-.768.302-.062.6-.029.857.149.317.22.573.654.615 1.037.039.36-.1.691-.323.967-.968 1.2-3.122 1.802-4.588 1.982-2.544.312-5.194-.198-7.231-1.822-1.914-1.496-3.132-3.711-3.37-6.128a9.21 9.21 0 0 1 1.966-6.711c1.533-1.884 3.624-3.025 6.032-3.283zm54.342-4.553l.151-.006c.451-.014.905.107 1.223.439.761.795.459 3.472.45 4.568 1.036.006 3.555-.316 4.332.375.281.251.395.597.396.967.001.359-.092.702-.358.955-.726.687-3.345.417-4.372.41.01 2.202-.288 8.988.391 10.659 1.097 2.701 3.474.325 4.83.964a1.31 1.31 0 0 1 .636.726c.153.428.017.81-.159 1.203l-.091.099c-.819.854-2.358 1.059-3.489 1.075-1.311.019-2.551-.204-3.52-1.174-.7-.702-1.135-1.664-1.348-2.622-.33-1.48-.194-3.117-.193-4.626l.004-6.301-2.387-.019a2.6 2.6 0 0 1-.374-.27c-.315-.283-.458-.706-.469-1.122-.01-.348.097-.692.357-.933.643-.595 2.056-.382 2.873-.367-.002-1.146-.254-3.202.179-4.21.193-.448.507-.61.938-.789z"/><path fill-rule="evenodd" d="M71.493 24.588c-1.371-.135-8.079-.087-10.406-.053-.428.006-.825.035-1.173.061-.297.022-.558.041-.774.041 0 0-.926.217-1.226.635-.196.273-.264.62-.31.946-.249 1.733-.394 3.501-.539 5.263l-.244 2.771-.883 8.908c-.023.238-.064.563-.11.932-.149 1.193-.356 2.846-.222 3.504.074.365.267.666.59.856s.678.294 1.041.356h.003l3.138.023 10.809-.006c.308-.014.635-.04.925-.15.39-.148.711-.43.865-.823a1.56 1.56 0 0 0-.055-1.22c-.177-.385-.417-.59-.818-.719H58.74l.598-5.909.158-1.603.015-.159.405.006c1.361.021 7.985.068 8.829-.058.31-.046.599-.124.826-.352.293-.296.415-.705.391-1.115-.02-.348-.175-.728-.439-.963-.177-.156-.396-.257-.629-.289-.789-.115-6.678-.084-8.165-.065l-.944.01.677-7.991h7.211c.368 0 .751.013 1.139.025.941.03 1.916.061 2.792-.074.311-.048.578-.154.804-.381.276-.278.428-.698.407-1.087-.022-.398-.236-.776-.547-1.021-.237-.186-.477-.27-.774-.298z"/></svg>