<svg xmlns="http://www.w3.org/2000/svg">
<symbol id="icon-logo" viewBox="0 0 85 32">
<path d="M14.104 0.516c-0.165 0-0.341 0-0.503 0.021-1.899 0.158-3.645 0.964-4.889 2.434-1.352 1.6-1.679 3.286-1.664 5.322l-3.619-0.006c-0.162 0-0.329-0.004-0.499-0.009-0.473-0.012-0.963-0.027-1.405 0.055-0.273 0.051-0.509 0.185-0.687 0.373l-0.001 0.001c-0.328 0.342-0.337 0.774-0.315 1.216 0.033 0.698 0.093 1.397 0.153 2.094 0.033 0.379 0.065 0.759 0.093 1.138l0.602 7.762 0.292 3.747c0.014 0.186 0.026 0.372 0.037 0.561 0.041 0.671 0.083 1.351 0.26 1.992 0.593 2.081 2.224 3.676 4.283 4.209l0.042 0.009c0.812 0.196 1.755 0.173 2.639 0.153 0.263-0.006 0.522-0.012 0.77-0.012l9.127 0.001c0.232 0 0.472 0.005 0.713 0.010 0.787 0.020 1.605 0.039 2.34-0.132 1.111-0.272 2.069-0.815 2.834-1.557l-0.002 0.002c0.702-0.697 1.262-1.626 1.507-2.587 0.188-0.734 0.235-1.54 0.281-2.323 0.015-0.252 0.030-0.502 0.049-0.745l0.399-5.141 0.498-6.31c0.025-0.312 0.056-0.628 0.087-0.942 0.068-0.684 0.136-1.374 0.134-2.051 0-0.416-0.089-0.803-0.386-1.113-0.206-0.213-0.541-0.317-0.825-0.363-0.425-0.069-0.892-0.057-1.343-0.044-0.167 0.004-0.331 0.008-0.491 0.009-1.139-0.003-2.277 0.001-3.415 0.011h-0.049c0.026-2.18-0.459-4.052-2.027-5.646-1.266-1.311-3.036-2.127-4.998-2.136h-0.025zM21.001 12.956l0.062 0.004c0 0.004 0.002 0.008 0.004 0.011l0.002 0.005c0.003 0.009 0.006 0.015 0.008 0.020l-0.001-0.003 0.002 0.006c0.011 0.025 0.013 0.030 0.013 0.071-0.021 2.674-0.736 6.117-2.634 8.075-1.757 1.814-4.486 2.705-6.976 2.753 1.16-2.18 3.022-4.249 4.945-5.784 0.297-0.237 0.609-0.452 0.919-0.667 0.201-0.138 0.403-0.277 0.599-0.421 0.191-0.14 0.449-0.33 0.476-0.586 0.025-0.235-0.1-0.418-0.248-0.587-0.206-0.12-0.358-0.169-0.595-0.1-0.334 0.098-0.672 0.346-0.977 0.57-0.082 0.059-0.16 0.117-0.235 0.169-2.459 1.756-4.471 3.975-5.943 6.543l-0.053 0.1c-0.051-2.139 0.437-3.931 1.749-5.652 1.969-2.582 5.737-4.099 8.883-4.529zM1.874 9.627h24.446c-0.087 0.823-0.142 1.654-0.198 2.484-0.031 0.462-0.063 0.924-0.099 1.384l-0.659 8.249-0.247 3.040-0.031 0.397c-0.039 0.524-0.078 1.053-0.18 1.567-0.104 0.526-0.307 0.985-0.579 1.445-0.116 0.175-0.229 0.325-0.349 0.468l0.006-0.008c-0.708 0.846-1.871 1.477-2.977 1.561-0.602 0.045-1.221 0.034-1.834 0.024-0.265-0.005-0.53-0.010-0.792-0.010h-9.108c-0.194 0-0.392 0.004-0.593 0.008-0.612 0.012-1.239 0.026-1.827-0.075-0.807-0.144-1.516-0.493-2.093-0.99l0.006 0.005c-0.696-0.59-1.21-1.376-1.456-2.272l-0.007-0.032c-0.165-0.597-0.206-1.233-0.246-1.856-0.010-0.157-0.021-0.313-0.033-0.468l-0.239-3.093-0.91-11.829zM21.544 11.523l-0.019 0.002c-3.711 0.429-7.936 1.955-10.334 4.962-1.542 1.931-2.385 4.445-2.106 6.919 0.061 0.543 0.184 1.063 0.361 1.579l-0.072 0.183c-0.305 0.766-1.013 2.545-0.767 3.071 0.072 0.152 0.217 0.254 0.374 0.303 0.065 0.021 0.13 0.033 0.198 0.041 0.207-0.035 0.399-0.078 0.524-0.264 0.134-0.2 0.273-0.68 0.39-1.091 0.056-0.196 0.107-0.376 0.152-0.503 0.224-0.63 0.392-1.055 0.57-1.474l-0.072 0.19 0.002-0.005 0.061-0.15c3.060 0.010 6.328-0.949 8.542-3.133 2.476-2.443 3.1-6.382 3.105-9.717 0-0.263-0.019-0.575-0.211-0.776-0.118-0.124-0.296-0.161-0.461-0.157-0.079 0.002-0.159 0.010-0.238 0.019zM13.806 1.853c0.118-0.007 0.237-0.013 0.356-0.012 1.453 0.010 2.909 0.661 3.93 1.685 1.39 1.394 1.675 2.875 1.678 4.768l-11.319 0.004c-0.045-1.627 0.217-3.113 1.284-4.398 1.026-1.235 2.49-1.905 4.070-2.046z"></path>
<path d="M21.062 12.96l-0.062-0.004c-3.144 0.429-6.913 1.947-8.882 4.529-1.311 1.721-1.799 3.513-1.749 5.652 1.524-2.668 3.536-4.886 5.933-6.6l0.062-0.042c0.075-0.052 0.155-0.11 0.235-0.169 0.305-0.224 0.642-0.472 0.977-0.57 0.236-0.069 0.388-0.020 0.595 0.1 0.148 0.169 0.273 0.351 0.248 0.587-0.027 0.256-0.285 0.446-0.475 0.586-0.198 0.145-0.398 0.283-0.599 0.421-0.312 0.215-0.622 0.429-0.92 0.667-1.922 1.535-3.784 3.603-4.945 5.784 2.49-0.050 5.219-0.939 6.976-2.753 1.899-1.958 2.615-5.402 2.634-8.075 0-0.041-0.002-0.046-0.013-0.072-0.003-0.007-0.009-0.020-0.014-0.033l-0.002-0.006zM21.527 11.525l0.018-0.002c0.079-0.008 0.159-0.018 0.238-0.019 0.165-0.004 0.344 0.033 0.461 0.157 0.192 0.201 0.211 0.513 0.211 0.776-0.005 3.334-0.63 7.273-3.105 9.717-2.213 2.184-5.481 3.142-8.542 3.133l-0.061 0.15-0.002 0.005c-0.172 0.425-0.346 0.852-0.499 1.284-0.035 0.095-0.087 0.263-0.135 0.432l-0.017 0.071c-0.118 0.411-0.255 0.891-0.39 1.091-0.124 0.186-0.317 0.229-0.524 0.263-0.074-0.008-0.141-0.022-0.206-0.042l0.008 0.002c-0.164-0.047-0.296-0.156-0.372-0.3l-0.002-0.003c-0.246-0.526 0.462-2.305 0.767-3.071l0.072-0.183c-0.165-0.457-0.292-0.991-0.358-1.545l-0.003-0.035c-0.279-2.475 0.564-4.988 2.106-6.92 2.398-3.006 6.623-4.532 10.334-4.961z"></path>
<path d="M21.543 11.523l-0.018 0.002c-3.711 0.429-7.936 1.955-10.334 4.962-1.542 1.931-2.385 4.445-2.106 6.919 0.061 0.543 0.184 1.063 0.361 1.579l-0.072 0.183c-0.305 0.766-1.013 2.545-0.766 3.071 0.071 0.152 0.217 0.254 0.373 0.303 0.065 0.021 0.13 0.033 0.198 0.041 0.207-0.035 0.399-0.078 0.525-0.264 0.134-0.2 0.271-0.68 0.389-1.091 0.056-0.196 0.107-0.376 0.153-0.503 0.152-0.434 0.325-0.859 0.498-1.284l0.002-0.005 0.062-0.15c3.060 0.010 6.328-0.949 8.541-3.133 2.476-2.443 3.1-6.382 3.105-9.717 0-0.263-0.019-0.575-0.211-0.776-0.118-0.124-0.296-0.161-0.461-0.157-0.079 0.002-0.159 0.010-0.238 0.019zM21.001 12.956l0.062 0.004 0.006 0.017 0.010 0.024c0.010 0.025 0.012 0.030 0.012 0.071-0.021 2.674-0.736 6.117-2.633 8.075-1.758 1.814-4.487 2.705-6.976 2.753 1.159-2.18 3.022-4.249 4.945-5.784 0.296-0.237 0.608-0.452 0.919-0.667 0.2-0.138 0.402-0.277 0.599-0.421 0.19-0.14 0.448-0.33 0.475-0.586 0.025-0.235-0.1-0.418-0.248-0.587-0.206-0.12-0.358-0.169-0.594-0.1-0.335 0.098-0.673 0.346-0.978 0.57-0.081 0.059-0.16 0.117-0.235 0.169-2.459 1.756-4.471 3.975-5.943 6.543l-0.053 0.1c-0.050-2.139 0.438-3.931 1.749-5.652 1.97-2.582 5.737-4.099 8.883-4.529zM69.326 20.585c-0.051-2.591-2.163-4.673-4.762-4.673-2.63 0-4.763 2.132-4.763 4.763 0 0.087 0.002 0.173 0.007 0.258l-0.001-0.012c0.135 2.522 2.213 4.517 4.756 4.517 2.63 0 4.763-2.132 4.763-4.763 0-0.032-0-0.063-0.001-0.095l0 0.005zM64.566 17.422c0.766 0.031 1.387 0.217 1.972 0.733 0.698 0.617 1.086 1.507 1.137 2.43 0.052 0.924-0.239 1.86-0.867 2.548-0.575 0.629-1.291 0.909-2.131 0.952-0.766-0.008-1.399-0.127-2.003-0.63-0.706-0.587-1.105-1.455-1.18-2.364-0.077-0.942 0.169-1.918 0.795-2.641 0.621-0.717 1.355-0.964 2.277-1.027zM56.090 20.191c-0.269-2.397-2.285-4.244-4.732-4.244-2.629 0-4.76 2.131-4.76 4.76 0 0.217 0.015 0.431 0.043 0.641l-0.003-0.024c0.293 2.374 2.297 4.194 4.726 4.194 2.629 0 4.76-2.131 4.76-4.76 0-0.2-0.012-0.396-0.036-0.589l0.002 0.023zM50.941 17.462c0.764-0.062 1.453 0.018 2.098 0.461 0.723 0.497 1.178 1.265 1.329 2.122 0.17 0.974 0.010 2.016-0.576 2.828-0.513 0.71-1.154 1.063-2.009 1.199-0.78 0.039-1.469-0.008-2.126-0.473-0.693-0.493-1.178-1.239-1.322-2.1l-0.003-0.019c-0.159-0.943 0.031-2.029 0.596-2.815 0.495-0.69 1.186-1.073 2.014-1.205zM79.31 15.989c-1.261 0.121-2.356 0.747-3.095 1.67l-0.007 0.009c-0.86 1.086-1.155 2.463-0.985 3.826 0.148 1.236 0.776 2.302 1.69 3.022l0.010 0.007c1.124 0.873 2.549 1.094 3.937 0.905 0.803-0.11 2.010-0.495 2.524-1.163 0.119-0.147 0.191-0.337 0.191-0.543 0-0.039-0.003-0.077-0.008-0.115l0 0.004c-0.019-0.174-0.105-0.324-0.232-0.426l-0.001-0.001c-0.158-0.118-0.367-0.132-0.554-0.096-0.26 0.052-0.492 0.212-0.713 0.363l-0.138 0.095c-0.97 0.504-2.045 0.74-3.111 0.395-0.768-0.258-1.382-0.799-1.731-1.495l-0.008-0.017c-0.184-0.366-0.276-0.756-0.357-1.155h4.576c0.19 0 0.394 0.007 0.604 0.013 0.543 0.018 1.124 0.036 1.603-0.050 0.144-0.029 0.268-0.098 0.365-0.194l-0 0c0.225-0.219 0.265-0.53 0.258-0.829-0.026-1.146-0.564-2.277-1.398-3.052-0.963-0.896-2.124-1.233-3.42-1.175zM79.452 17.42c0.099-0.012 0.215-0.019 0.331-0.019 0.613 0 1.181 0.194 1.645 0.524l-0.009-0.006c0.684 0.485 1.043 1.177 1.187 1.989-0.58 0.007-1.16 0.005-1.741 0.003l-4.088 0.003c0.147-0.495 0.318-0.945 0.635-1.359 0.51-0.668 1.216-1.026 2.040-1.134z"></path>
<path d="M53.827 12.585c1.718-0.041 3.444-0.003 5.162-0.006 0.979-0.001 2.23-0.081 3.179 0.018 0.151 0.009 0.287 0.068 0.393 0.161l-0.001-0.001c0.165 0.145 0.275 0.362 0.281 0.583 0.005 0.2-0.118 0.428-0.261 0.563-0.105 0.090-0.237 0.15-0.383 0.165l-0.003 0c-0.395 0.065-0.832 0.027-1.234 0.027l-2.133-0.004v7.914c0.002 0.666 0.087 2.121-0.013 2.688-0.028 0.19-0.106 0.358-0.22 0.494l0.001-0.002c-0.127 0.138-0.308 0.225-0.51 0.225h-0c-0.204 0.004-0.405-0.041-0.552-0.19-0.173-0.174-0.237-0.43-0.259-0.669-0.039-0.439-0.003-0.904 0.002-1.345 0.007-0.653 0.001-1.307 0-1.959l0.006-7.158c-0.709 0.003-3.164 0.117-3.667-0.111-0.174-0.075-0.307-0.22-0.364-0.398l-0.001-0.005c-0.024-0.069-0.037-0.149-0.037-0.232 0-0.138 0.038-0.267 0.103-0.378l-0.002 0.003c0.12-0.218 0.28-0.312 0.512-0.382zM42.593 15.995c0.124-0.009 0.269-0.015 0.415-0.015 0.521 0 1.026 0.067 1.507 0.194l-0.041-0.009c0.653 0.175 1.654 0.561 1.992 1.182 0.093 0.17 0.141 0.375 0.075 0.564-0.067 0.193-0.25 0.341-0.434 0.416-0.539 0.22-1.212-0.521-1.718-0.712-0.824-0.31-1.813-0.292-2.614 0.082-0.735 0.344-1.265 0.994-1.538 1.749-0.318 0.877-0.345 2.021 0.059 2.875 0.374 0.793 1.063 1.346 1.879 1.634 0.935 0.33 1.909 0.155 2.782-0.264 0.27-0.147 0.516-0.341 0.825-0.406 0.041-0.011 0.088-0.017 0.137-0.017 0.117 0 0.227 0.036 0.317 0.096l-0.002-0.001c0.172 0.13 0.291 0.322 0.324 0.543l0.001 0.005c0.001 0.016 0.002 0.035 0.002 0.054 0 0.175-0.065 0.336-0.173 0.458l0.001-0.001c-0.511 0.633-1.649 0.952-2.422 1.047-1.344 0.165-2.743-0.104-3.817-0.962-0.983-0.773-1.646-1.916-1.778-3.215l-0.002-0.020c-0.017-0.152-0.026-0.328-0.026-0.506 0-1.153 0.401-2.213 1.072-3.046l-0.007 0.009c0.768-0.955 1.891-1.599 3.164-1.73l0.020-0.002zM71.279 13.592l0.081-0.004c0.237-0.007 0.477 0.057 0.645 0.232 0.403 0.419 0.243 1.833 0.237 2.411 0.547 0.003 1.877-0.166 2.286 0.198 0.129 0.121 0.21 0.293 0.21 0.484 0 0.009-0 0.018-0.001 0.028l0-0.001c0 0.19-0.049 0.372-0.189 0.505-0.383 0.362-1.765 0.22-2.308 0.217 0.005 1.162-0.152 4.744 0.206 5.626 0.579 1.427 1.834 0.172 2.55 0.51 0.156 0.081 0.275 0.215 0.334 0.378l0.002 0.005c0.082 0.226 0.009 0.428-0.083 0.636l-0.049 0.052c-0.434 0.45-1.245 0.558-1.842 0.568-0.693 0.010-1.347-0.108-1.858-0.619-0.371-0.372-0.6-0.879-0.712-1.385-0.174-0.78-0.103-1.645-0.102-2.442l0.002-3.326c-0.419 0-0.84-0.003-1.259-0.010-0.075-0.045-0.14-0.092-0.2-0.144l0.002 0.001c-0.153-0.149-0.248-0.357-0.248-0.587 0-0.002 0-0.004 0-0.006v0c-0.001-0.012-0.001-0.026-0.001-0.040 0-0.177 0.073-0.337 0.19-0.453l0-0c0.34-0.314 1.086-0.201 1.517-0.194-0.002-0.605-0.134-1.69 0.093-2.222 0.103-0.236 0.268-0.322 0.495-0.416z"></path>
<path d="M37.966 13.365c-0.725-0.071-4.265-0.045-5.494-0.028-0.227 0.003-0.436 0.019-0.619 0.032-0.157 0.012-0.295 0.022-0.409 0.023 0 0-0.489 0.114-0.648 0.334-0.103 0.145-0.138 0.327-0.163 0.5-0.131 0.915-0.209 1.848-0.285 2.779-0.040 0.489-0.081 0.978-0.128 1.463l-0.467 4.702c-0.012 0.126-0.034 0.297-0.058 0.492-0.079 0.63-0.189 1.503-0.118 1.85 0.039 0.193 0.141 0.351 0.312 0.452 0.167 0.099 0.357 0.155 0.549 0.188h0.001c0.395-0.001 0.991 0.005 1.657 0.011 1.38 0.014 4.89 0.032 5.706-0.003 0.162-0.007 0.334-0.021 0.488-0.078 0.206-0.078 0.376-0.227 0.457-0.435 0.033-0.085 0.052-0.184 0.052-0.287 0-0.13-0.030-0.253-0.084-0.362l0.002 0.005c-0.078-0.186-0.234-0.326-0.427-0.379l-0.005-0.001h-7.054c0.118-1.038 0.223-2.079 0.316-3.119l0.083-0.846 0.008-0.084 0.215 0.003c0.718 0.010 4.215 0.036 4.661-0.031 0.163-0.024 0.316-0.065 0.436-0.186 0.13-0.136 0.209-0.321 0.209-0.524 0-0.023-0.001-0.045-0.003-0.067l0 0.003c-0.010-0.2-0.097-0.378-0.231-0.508l-0-0c-0.090-0.080-0.203-0.134-0.329-0.152l-0.003-0c-0.417-0.061-3.526-0.044-4.311-0.034-0.211 0.002-0.385 0.005-0.499 0.005l0.357-4.219h3.807c0.194 0 0.396 0.006 0.602 0.013 0.497 0.015 1.012 0.031 1.474-0.039 0.166-0.019 0.312-0.093 0.423-0.201l-0 0c0.134-0.139 0.217-0.329 0.217-0.538 0-0.013-0-0.025-0.001-0.037l0 0.002c-0.028-0.374-0.324-0.67-0.695-0.697l-0.002-0z"></path>
</symbol>
</svg>
